<svg width="57" height="66" viewBox="0 0 57 66" fill="none" xmlns="http://www.w3.org/2000/svg">
<path d="M39.3909 61.5853C49.4339 57.2711 56.4807 46.8622 56.4807 32.6189V32.5764C56.4798 30.8433 54.9485 29.779 53.7316 30.6551C51.3076 32.4001 49.1313 32.8715 48.109 31.615C47.8796 31.3332 47.7211 30.9802 47.6291 30.5683C45.7143 21.9993 42.2488 14.1173 37.2998 7.8411C36.3704 6.66264 34.9478 5.98047 33.4469 5.98047C31.4649 5.98047 29.6829 7.17362 28.9124 8.99984C27.2922 12.8405 24.5508 15.7308 21.2786 16.885L16.4461 21.2639L14.3984 43.8999L23.3209 52.874L39.3909 61.5853Z" fill="#FBF198"/>
<path d="M18.7755 29.7936C18.7755 25.2279 19.666 20.8707 21.2794 16.8834C20.2632 17.2419 19.1964 17.435 18.0954 17.435C15.6053 17.435 13.2872 16.4574 11.3447 14.7755C10.8136 14.3157 10.1323 14.0664 9.42992 14.0664C7.78056 14.0664 6.45412 15.4215 6.48622 17.0704C6.54023 19.8374 7.15008 22.5785 8.27092 25.051C9.55779 27.8899 9.87387 30.4077 8.89122 31.6153C7.86886 32.8716 5.69254 32.4002 3.26859 30.6554C2.05171 29.7793 0.520305 30.8436 0.519531 32.5767V32.6192C0.519531 51.6101 13.0472 63.7846 28.5008 63.7846C32.4696 63.7846 36.2445 62.9798 39.6647 61.4645C27.3813 56.2015 18.7755 44.0032 18.7755 29.7936Z" fill="#F9D171"/>
<path d="M18.825 27.9565C21.7862 25.4141 25.038 23.9557 28.502 23.9492C32.2405 23.9562 35.732 25.6545 38.8777 28.5815C41.9721 31.525 44.7209 35.6972 45.7895 41.0375C46.8509 46.3258 45.8142 51.9575 42.6715 56.3566C39.5873 60.7401 34.3969 63.8912 28.502 63.8527L20.7483 57.617L18.4055 47.0496L16.6602 32.0071L18.825 27.9565Z" fill="#F8AD3E"/>
<path d="M18.7773 29.7942C18.7773 29.1779 18.7941 28.5655 18.8262 27.957C18.5914 28.1586 18.3582 28.3663 18.1269 28.5813C15.0325 31.5249 12.2837 35.6972 11.2151 41.0374C10.1537 46.3257 11.1903 51.9572 14.3331 56.3565C17.4173 60.74 22.6077 63.8911 28.5026 63.8527C32.1046 63.8762 35.4425 62.7073 38.1987 60.7956C26.7029 55.2155 18.7773 43.4308 18.7773 29.7942Z" fill="#ED8D00"/>
<path d="M20.433 40.3696C21.1624 39.2463 21.9269 38.3281 22.616 37.6064C24.6503 35.5403 26.6303 34.4887 28.502 34.4805C30.3736 34.4887 32.3537 35.5403 34.388 37.6064C36.1892 39.4921 38.5041 42.7214 39.3649 47.4371C40.1012 51.4574 39.363 55.5405 37.3403 58.6437L37.3131 58.6856C35.2359 61.9211 31.9819 63.8529 28.6088 63.8529H28.395L18.1914 50.9164L20.433 40.3696Z" fill="#F85647"/>
<path d="M20.4328 40.3691C19.2557 42.1814 18.1697 44.5266 17.6377 47.4407C16.9022 51.4566 17.6404 55.5397 19.6632 58.6429L19.6903 58.6848C21.7677 61.9207 25.0216 63.8525 28.3945 63.8522H28.6084C31.5428 63.8522 34.3868 62.3896 36.4446 59.879C28.9117 55.6703 23.1233 48.7159 20.4328 40.3691Z" fill="#E83826"/>
<path d="M15.4846 6.74012C14.9447 8.57665 14.7235 9.94937 15.8663 11.0886C16.0554 11.2771 16.276 11.4507 16.5356 11.5901C17.2469 11.9719 18.1949 12.1279 19.4003 11.7296C20.7573 11.2713 22.4707 10.0458 23.1026 7.77034C23.8496 5.5101 22.5757 2.90194 20.7952 1.49119C19.0419 0.00129057 16.7821 -0.29094 16.1811 0.256267C15.4658 0.817654 15.846 2.01893 15.8852 3.2291C15.996 4.45719 15.7659 5.69418 15.4846 6.74012Z" fill="#F9D171"/>
<path d="M20.7454 47.3809H43.5322C45.5181 47.3809 47.1281 48.9908 47.1281 50.9768V62.4039C47.1281 64.3898 45.5182 65.9998 43.5322 65.9998H20.7454L17.7313 65.307L13.125 57.2288L16.6572 48.119L20.7454 47.3809Z" fill="#FF899F"/>
<path d="M19.2044 63.0488V50.3319C19.2044 49.1097 19.8147 48.0307 20.7465 47.3809H13.4669C11.481 47.3809 9.87109 48.9908 9.87109 50.9768V62.4039C9.87109 64.3898 11.481 65.9998 13.4669 65.9998H20.7465C19.8147 65.3501 19.2044 64.2709 19.2044 63.0488Z" fill="#FF5F7F"/>
<path d="M17.1117 57.229L20.4568 54.1543C20.8617 53.7821 20.8883 53.1519 20.5161 52.7471C20.144 52.3421 19.5139 52.3157 19.1087 52.6878L16.3942 55.183V53.3182C16.3942 52.768 15.9483 52.3223 15.3983 52.3223C14.8482 52.3223 14.4023 52.7682 14.4023 53.3182V61.4689C14.4023 62.0191 14.8482 62.4649 15.3983 62.4649C15.9483 62.4649 16.3942 62.019 16.3942 61.4689V59.3046L19.3806 62.1858C19.5738 62.3723 19.8231 62.465 20.072 62.465C20.3329 62.465 20.5935 62.363 20.7889 62.1605C21.1708 61.7648 21.1595 61.1342 20.7636 60.7522L17.1117 57.229Z" fill="#FFF8E6"/>
<path d="M28.9762 59.8012C28.5545 59.4477 27.9265 59.503 27.573 59.9248C27.5235 59.984 27.4699 60.0393 27.4139 60.0891C27.1278 60.3441 26.759 60.4733 26.3176 60.4733C25.0998 60.4733 24.109 59.4825 24.109 58.2647C24.109 57.047 25.0998 56.0562 26.3176 56.0562C26.7603 56.0562 27.1871 56.1864 27.5519 56.4328C28.0078 56.7411 28.627 56.6209 28.9347 56.1651C29.2426 55.7093 29.1226 55.0902 28.6669 54.7823C27.9716 54.3126 27.1592 54.0645 26.3177 54.0645C24.0015 54.0645 22.1172 55.9488 22.1172 58.265C22.1172 60.5812 24.0015 62.4655 26.3177 62.4655C27.2489 62.4655 28.0861 62.1583 28.7391 61.577C28.8671 61.4629 28.9887 61.3376 29.0999 61.2047C29.4531 60.7827 29.3978 60.1545 28.9762 59.8012Z" fill="#FFF8E6"/>
<path d="M41.6092 50.916C41.0592 50.916 40.6133 51.3619 40.6133 51.9119V61.4688C40.6133 62.019 41.0592 62.4647 41.6092 62.4647C42.1593 62.4647 42.6051 62.0188 42.6051 61.4688V51.9119C42.6053 51.3619 42.1594 50.916 41.6092 50.916Z" fill="#FFF8E6"/>
<path d="M37.4359 53.9746C36.9281 53.9746 36.51 54.3549 36.4485 54.846C35.8913 54.5342 35.25 54.3555 34.5675 54.3555C32.4367 54.3555 30.7031 56.0892 30.7031 58.22C30.7031 60.3508 32.4367 62.0844 34.5675 62.0844C35.2138 62.0844 35.875 61.9142 36.4486 61.5949C36.5104 62.0856 36.9284 62.4655 37.4359 62.4655C37.9859 62.4655 38.4318 62.0196 38.4318 61.4696V54.9705C38.4318 54.4205 37.9859 53.9746 37.4359 53.9746ZM36.4293 58.4203C36.3706 59.3583 35.4832 60.0925 34.5675 60.0925C33.5349 60.0925 32.695 59.2525 32.695 58.2201C32.695 57.1876 33.5349 56.3476 34.5675 56.3476C35.5999 56.3476 36.4398 57.1876 36.4398 58.2201C36.4398 58.2872 36.4365 58.3534 36.4293 58.4203Z" fill="#FFF8E6"/>
</svg>
